Results
version=1
nRows=12
nColumns=24
inDegrees=yes
endheader
time	pelvis_tilt	pelvis_list	pelvis_rotation	pelvis_tx	pelvis_ty	pelvis_tz	hip_flexion_r	hip_adduction_r	hip_rotation_r	knee_angle_r	ankle_angle_r	subtalar_angle_r	mtp_angle_r	hip_flexion_l	hip_adduction_l	hip_rotation_l	knee_angle_l	ankle_angle_l	subtalar_angle_l	mtp_angle_l	lumbar_extension	lumbar_bending	lumbar_rotation
      0.54200000	     -7.32014862	      2.25887578	      8.99256191	     -0.76066082	      0.88714652	      0.29615120	     32.72822277	     -3.64769972	    -10.37093348	     -3.09723855	      2.32493357	     -0.67213188	      4.57922686	     -9.25434229	      2.85811022	      7.17646688	     -9.16024413	     14.05795223	      1.33182738	      9.71356424	      0.72058780	     -5.35903126	    -10.61162003
      0.54616667	     -7.36020725	      2.22318064	      9.06107224	     -0.75484512	      0.88614037	      0.29644196	     32.83463322	     -3.56386076	    -10.06628370	     -3.51182921	      2.26118059	     -0.92202009	      4.54170958	     -9.25583037	      2.74073629	      7.08624651	     -9.86353150	     14.18984292	      1.64137403	      9.79919606	      0.78556211	     -5.26907380	    -10.58880029
      0.55033333	     -7.37159592	      2.16591462	      9.10938861	     -0.74897043	      0.88519633	      0.29676126	     32.91175851	     -3.44367444	     -9.75588637	     -3.99673003	      2.15298372	     -1.23837848	      4.53024824	     -9.27686180	      2.59409218	      6.94342106	    -10.59608082	     14.31312862	      2.00755322	      9.93343104	      0.83653068	     -5.13949531	    -10.53866240
      0.55450000	     -7.37635985	      2.09161018	      9.15354297	     -0.74304969	      0.88429964	      0.29710393	     32.98093071	     -3.30141760	     -9.45582724	     -4.54460760	      1.99842251	     -1.60480330	      4.54775344	     -9.28025705	      2.42573551	      6.77366402	    -11.37267315	     14.40704459	      2.38033000	     10.12602734	      0.87941773	     -4.98447159	    -10.47840277
      0.55866667	     -7.39153944	      2.01777483	      9.18350284	     -0.73710083	      0.88341568	      0.29746887	     33.07398458	     -3.15331241	     -9.13524158	     -5.17560158	      1.86555081	     -1.98400195	      4.57836202	     -9.26835754	      2.26804278	      6.66372641	    -12.15886682	     14.46438591	      2.62200402	     10.29028316	      0.93025050	     -4.83035822	    -10.41378250
      0.56283333	     -7.36550612	      1.90735496	      9.20199947	     -0.73106857	      0.88263604	      0.29787367	     33.10815998	     -2.95258519	     -8.86374245	     -5.80959302	      1.51375372	     -2.50622150	      4.66208522	     -9.26555830	      2.04469758	      6.36871651	    -13.00620274	     14.46319454	      3.13693912	     10.65494815	      0.96440165	     -4.62616962	    -10.30502727
      0.56700000	     -7.32221240	      1.77785952	      9.20547163	     -0.72498622	      0.88191140	      0.29830483	     33.11989886	     -2.71945017	     -8.56342223	     -6.47718367	      1.21422995	     -3.04143530	      4.85729737	     -9.25973586	      1.80194760	      6.07521172	    -13.89605615	     14.47068523	      3.57261313	     11.37970611	      0.98050121	     -4.37471483	    -10.19703739
      0.57116667	     -7.38397423	      1.70751521	      9.20564851	     -0.71895416	      0.88107013	      0.29870967	     33.30344696	     -2.56869425	     -8.28680239	     -7.30537105	      0.92610395	     -3.50838752	      4.91841524	     -9.15980565	      1.66804244	      5.99801281	    -14.75679139	     14.32230525	      3.65452941	     11.61156417	      1.11035202	     -4.23216870	    -10.10576081
      0.57533333	     -7.38600571	      1.58387690	      9.18752979	     -0.71282831	      0.88035798	      0.29917491	     33.38684570	     -2.33648218	     -7.98789439	     -8.07064625	      0.49871733	     -4.14061712	      5.00301017	     -9.08286856	      1.44748452	      5.74029850	    -15.68985355	     14.17442719	      3.97086318	     11.93403166	      1.19800652	     -4.00646576	     -9.95289870
      0.57950000	     -7.32440437	      1.43533675	      9.15894422	     -0.70663712	      0.87978054	      0.29964051	     33.40952652	     -2.07498949	     -7.80130776	     -8.86704429	      0.01286591	     -4.68056071	      6.56203753	     -9.04736710	      1.17938609	      5.38969689	    -16.65949764	     13.97177696	      4.30343748	     17.51162283	      1.20822515	     -3.72814341	     -9.84182024
      0.58366667	     -7.34564180	      1.33170545	      9.12327306	     -0.70047136	      0.87913859	      0.30012272	     33.54350563	     -1.86306591	     -7.54042610	     -9.73782395	     -0.40416197	     -5.24963205	      6.55221673	     -8.92951333	      0.99810749	      5.21371950	    -17.62783466	     13.63209174	      4.42930259	     17.57132966	      1.31833544	     -3.52756420	     -9.68379895
      0.58783333	     -7.28651421	      1.17818868	      9.08074289	     -0.69425960	      0.87865674	      0.30064499	     33.56946301	     -1.58327602	     -7.31074737	    -10.56084539	     -0.92611276	     -5.90117838	      6.56236355	     -8.84198136	      0.73012848	      4.89742206	    -18.69538165	     13.39699758	      4.76936711	     17.80379713	      1.33091772	     -3.25121990	     -9.48467105
